<svg xmlns="http://www.w3.org/2000/svg" viewBox="0 0 2423.15 33.23"><defs><style>.cls-1{fill:#ff3cff;}</style></defs><g id="Calque_4" data-name="Calque 4"><polygon class="cls-1" points="1866.02 0.12 1615.31 0.12 1599.35 33.12 1850.07 33.12 1866.02 0.12"/><polygon class="cls-1" points="1058.02 0.12 807.31 0.12 791.35 33.12 1042.07 33.12 1058.02 0.12"/><polygon class="cls-1" points="387.35 33.12 638.07 33.12 654.02 0.12 403.31 0.12 387.35 33.12"/><polygon class="cls-1" points="1462.02 0.12 1211.31 0.12 1195.35 33.12 1446.07 33.12 1462.02 0.12"/><polygon class="cls-1" points="2270.02 0.12 2019.31 0.12 2003.35 33.12 2254.07 33.12 2270.02 0.12"/><polygon class="cls-1" points="2407.35 33.12 2423.58 33.12 2423.58 0.12 2423.31 0.12 2407.35 33.12"/><polygon class="cls-1" points="250.02 0.12 -0.42 0.12 -0.42 33.12 234.07 33.12 250.02 0.12"/></g></svg>