<svg id="Pattern" xmlns="http://www.w3.org/2000/svg" viewBox="0 0 638.5 1357.18"><defs><style>.cls-1{fill:#ff3cff;}</style></defs><polygon points="8.21 4.11 8.21 0 4.11 0 4.11 4.11 0 4.11 0 8.21 4.11 8.21 4.11 12.32 8.21 12.32 8.21 8.21 12.32 8.21 12.32 4.11 8.21 4.11"/><polygon points="97.83 93.72 97.83 89.61 93.72 89.61 93.72 93.72 89.61 93.72 89.61 97.83 93.72 97.83 93.72 101.94 97.83 101.94 97.83 97.83 101.94 97.83 101.94 93.72 97.83 93.72"/><polygon class="cls-1" points="97.83 4.11 97.83 0 93.72 0 93.72 4.11 89.61 4.11 89.61 8.21 93.72 8.21 93.72 12.32 97.83 12.32 97.83 8.21 101.94 8.21 101.94 4.11 97.83 4.11"/><polygon class="cls-1" points="8.21 93.72 8.21 89.61 4.11 89.61 4.11 93.72 0 93.72 0 97.83 4.11 97.83 4.11 101.94 8.21 101.94 8.21 97.83 12.32 97.83 12.32 93.72 8.21 93.72"/><polygon points="8.21 183.34 8.21 179.23 4.11 179.23 4.11 183.34 0 183.34 0 187.44 4.11 187.44 4.11 191.55 8.21 191.55 8.21 187.44 12.32 187.44 12.32 183.34 8.21 183.34"/><polygon points="97.83 272.95 97.83 268.84 93.72 268.84 93.72 272.95 89.61 272.95 89.61 277.06 93.72 277.06 93.72 281.16 97.83 281.16 97.83 277.06 101.94 277.06 101.94 272.95 97.83 272.95"/><polygon class="cls-1" points="97.83 183.34 97.83 179.23 93.72 179.23 93.72 183.34 89.61 183.34 89.61 187.44 93.72 187.44 93.72 191.55 97.83 191.55 97.83 187.44 101.94 187.44 101.94 183.34 97.83 183.34"/><polygon class="cls-1" points="8.21 272.95 8.21 268.84 4.11 268.84 4.11 272.95 0 272.95 0 277.06 4.11 277.06 4.11 281.16 8.21 281.16 8.21 277.06 12.32 277.06 12.32 272.95 8.21 272.95"/><polygon points="187.44 4.11 187.44 0 183.34 0 183.34 4.11 179.23 4.11 179.23 8.21 183.34 8.21 183.34 12.32 187.44 12.32 187.44 8.21 191.55 8.21 191.55 4.11 187.44 4.11"/><polygon points="277.06 93.72 277.06 89.61 272.95 89.61 272.95 93.72 268.84 93.72 268.84 97.83 272.95 97.83 272.95 101.94 277.06 101.94 277.06 97.83 281.16 97.83 281.16 93.72 277.06 93.72"/><polygon class="cls-1" points="277.06 4.11 277.06 0 272.95 0 272.95 4.11 268.84 4.11 268.84 8.21 272.95 8.21 272.95 12.32 277.06 12.32 277.06 8.21 281.16 8.21 281.16 4.11 277.06 4.11"/><polygon class="cls-1" points="187.44 93.72 187.44 89.61 183.34 89.61 183.34 93.72 179.23 93.72 179.23 97.83 183.34 97.83 183.34 101.94 187.44 101.94 187.44 97.83 191.55 97.83 191.55 93.72 187.44 93.72"/><polygon points="187.44 183.34 187.44 179.23 183.34 179.23 183.34 183.34 179.23 183.34 179.23 187.44 183.34 187.44 183.34 191.55 187.44 191.55 187.44 187.44 191.55 187.44 191.55 183.34 187.44 183.34"/><polygon points="277.06 272.95 277.06 268.84 272.95 268.84 272.95 272.95 268.84 272.95 268.84 277.06 272.95 277.06 272.95 281.16 277.06 281.16 277.06 277.06 281.16 277.06 281.16 272.95 277.06 272.95"/><polygon class="cls-1" points="277.06 183.34 277.06 179.23 272.95 179.23 272.95 183.34 268.84 183.34 268.84 187.44 272.95 187.44 272.95 191.55 277.06 191.55 277.06 187.44 281.16 187.44 281.16 183.34 277.06 183.34"/><polygon class="cls-1" points="187.44 272.95 187.44 268.84 183.34 268.84 183.34 272.95 179.23 272.95 179.23 277.06 183.34 277.06 183.34 281.16 187.44 281.16 187.44 277.06 191.55 277.06 191.55 272.95 187.44 272.95"/><polygon points="8.21 362.56 8.21 358.46 4.11 358.46 4.11 362.56 0 362.56 0 366.67 4.11 366.67 4.11 370.78 8.21 370.78 8.21 366.67 12.32 366.67 12.32 362.56 8.21 362.56"/><polygon points="97.83 452.18 97.83 448.07 93.72 448.07 93.72 452.18 89.61 452.18 89.61 456.29 93.72 456.29 93.72 460.39 97.83 460.39 97.83 456.29 101.94 456.29 101.94 452.18 97.83 452.18"/><polygon class="cls-1" points="97.83 362.56 97.83 358.46 93.72 358.46 93.72 362.56 89.61 362.56 89.61 366.67 93.72 366.67 93.72 370.78 97.83 370.78 97.83 366.67 101.94 366.67 101.94 362.56 97.83 362.56"/><polygon class="cls-1" points="8.21 452.18 8.21 448.07 4.11 448.07 4.11 452.18 0 452.18 0 456.29 4.11 456.29 4.11 460.39 8.21 460.39 8.21 456.29 12.32 456.29 12.32 452.18 8.21 452.18"/><polygon points="8.21 541.79 8.21 537.68 4.11 537.68 4.11 541.79 0 541.79 0 545.9 4.11 545.9 4.11 550.01 8.21 550.01 8.21 545.9 12.32 545.9 12.32 541.79 8.21 541.79"/><polygon points="97.83 631.41 97.83 627.3 93.72 627.3 93.72 631.41 89.61 631.41 89.61 635.51 93.72 635.51 93.72 639.62 97.83 639.62 97.83 635.51 101.94 635.51 101.94 631.41 97.83 631.41"/><polygon class="cls-1" points="97.83 541.79 97.83 537.68 93.72 537.68 93.72 541.79 89.61 541.79 89.61 545.9 93.72 545.9 93.72 550.01 97.83 550.01 97.83 545.9 101.94 545.9 101.94 541.79 97.83 541.79"/><polygon class="cls-1" points="8.21 631.41 8.21 627.3 4.11 627.3 4.11 631.41 0 631.41 0 635.51 4.11 635.51 4.11 639.62 8.21 639.62 8.21 635.51 12.32 635.51 12.32 631.41 8.21 631.41"/><polygon points="187.44 362.56 187.44 358.46 183.34 358.46 183.34 362.56 179.23 362.56 179.23 366.67 183.34 366.67 183.34 370.78 187.44 370.78 187.44 366.67 191.55 366.67 191.55 362.56 187.44 362.56"/><polygon points="277.06 452.18 277.06 448.07 272.95 448.07 272.95 452.18 268.84 452.18 268.84 456.29 272.95 456.29 272.95 460.39 277.06 460.39 277.06 456.29 281.16 456.29 281.16 452.18 277.06 452.18"/><polygon class="cls-1" points="277.06 362.56 277.06 358.46 272.95 358.46 272.95 362.56 268.84 362.56 268.84 366.67 272.95 366.67 272.95 370.78 277.06 370.78 277.06 366.67 281.16 366.67 281.16 362.56 277.06 362.56"/><polygon class="cls-1" points="187.44 452.18 187.44 448.07 183.34 448.07 183.34 452.18 179.23 452.18 179.23 456.29 183.34 456.29 183.34 460.39 187.44 460.39 187.44 456.29 191.55 456.29 191.55 452.18 187.44 452.18"/><polygon points="187.44 541.79 187.44 537.68 183.34 537.68 183.34 541.79 179.23 541.79 179.23 545.9 183.34 545.9 183.34 550.01 187.44 550.01 187.44 545.9 191.55 545.9 191.55 541.79 187.44 541.79"/><polygon points="277.06 631.41 277.06 627.3 272.95 627.3 272.95 631.41 268.84 631.41 268.84 635.51 272.95 635.51 272.95 639.62 277.06 639.62 277.06 635.51 281.16 635.51 281.16 631.41 277.06 631.41"/><polygon class="cls-1" points="277.06 541.79 277.06 537.68 272.95 537.68 272.95 541.79 268.84 541.79 268.84 545.9 272.95 545.9 272.95 550.01 277.06 550.01 277.06 545.9 281.16 545.9 281.16 541.79 277.06 541.79"/><polygon class="cls-1" points="187.44 631.41 187.44 627.3 183.34 627.3 183.34 631.41 179.23 631.41 179.23 635.51 183.34 635.51 183.34 639.62 187.44 639.62 187.44 635.51 191.55 635.51 191.55 631.41 187.44 631.41"/><polygon points="365.55 4.67 365.55 0.56 361.44 0.56 361.44 4.67 357.34 4.67 357.34 8.78 361.44 8.78 361.44 12.88 365.55 12.88 365.55 8.78 369.66 8.78 369.66 4.67 365.55 4.67"/><polygon points="455.17 94.28 455.17 90.17 451.06 90.17 451.06 94.28 446.95 94.28 446.95 98.39 451.06 98.39 451.06 102.5 455.17 102.5 455.17 98.39 459.27 98.39 459.27 94.28 455.17 94.28"/><polygon class="cls-1" points="455.17 4.67 455.17 0.56 451.06 0.56 451.06 4.67 446.95 4.67 446.95 8.78 451.06 8.78 451.06 12.88 455.17 12.88 455.17 8.78 459.27 8.78 459.27 4.67 455.17 4.67"/><polygon class="cls-1" points="365.55 94.28 365.55 90.17 361.44 90.17 361.44 94.28 357.34 94.28 357.34 98.39 361.44 98.39 361.44 102.5 365.55 102.5 365.55 98.39 369.66 98.39 369.66 94.28 365.55 94.28"/><polygon points="365.55 183.9 365.55 179.79 361.44 179.79 361.44 183.9 357.34 183.9 357.34 188 361.44 188 361.44 192.11 365.55 192.11 365.55 188 369.66 188 369.66 183.9 365.55 183.9"/><polygon points="455.17 273.51 455.17 269.4 451.06 269.4 451.06 273.51 446.95 273.51 446.95 277.62 451.06 277.62 451.06 281.72 455.17 281.72 455.17 277.62 459.27 277.62 459.27 273.51 455.17 273.51"/><polygon class="cls-1" points="455.17 183.9 455.17 179.79 451.06 179.79 451.06 183.9 446.95 183.9 446.95 188 451.06 188 451.06 192.11 455.17 192.11 455.17 188 459.27 188 459.27 183.9 455.17 183.9"/><polygon class="cls-1" points="365.55 273.51 365.55 269.4 361.44 269.4 361.44 273.51 357.34 273.51 357.34 277.62 361.44 277.62 361.44 281.72 365.55 281.72 365.55 277.62 369.66 277.62 369.66 273.51 365.55 273.51"/><polygon points="544.78 4.67 544.78 0.56 540.67 0.56 540.67 4.67 536.56 4.67 536.56 8.78 540.67 8.78 540.67 12.88 544.78 12.88 544.78 8.78 548.89 8.78 548.89 4.67 544.78 4.67"/><polygon points="634.39 94.28 634.39 90.17 630.28 90.17 630.28 94.28 626.18 94.28 626.18 98.39 630.28 98.39 630.28 102.5 634.39 102.5 634.39 98.39 638.5 98.39 638.5 94.28 634.39 94.28"/><polygon class="cls-1" points="634.39 4.67 634.39 0.56 630.28 0.56 630.28 4.67 626.18 4.67 626.18 8.78 630.28 8.78 630.28 12.88 634.39 12.88 634.39 8.78 638.5 8.78 638.5 4.67 634.39 4.67"/><polygon class="cls-1" points="544.78 94.28 544.78 90.17 540.67 90.17 540.67 94.28 536.56 94.28 536.56 98.39 540.67 98.39 540.67 102.5 544.78 102.5 544.78 98.39 548.89 98.39 548.89 94.28 544.78 94.28"/><polygon points="544.78 183.9 544.78 179.79 540.67 179.79 540.67 183.9 536.56 183.9 536.56 188 540.67 188 540.67 192.11 544.78 192.11 544.78 188 548.89 188 548.89 183.9 544.78 183.9"/><polygon points="634.39 273.51 634.39 269.4 630.28 269.4 630.28 273.51 626.18 273.51 626.18 277.62 630.28 277.62 630.28 281.72 634.39 281.72 634.39 277.62 638.5 277.62 638.5 273.51 634.39 273.51"/><polygon class="cls-1" points="634.39 183.9 634.39 179.79 630.28 179.79 630.28 183.9 626.18 183.9 626.18 188 630.28 188 630.28 192.11 634.39 192.11 634.39 188 638.5 188 638.5 183.9 634.39 183.9"/><polygon class="cls-1" points="544.78 273.51 544.78 269.4 540.67 269.4 540.67 273.51 536.56 273.51 536.56 277.62 540.67 277.62 540.67 281.72 544.78 281.72 544.78 277.62 548.89 277.62 548.89 273.51 544.78 273.51"/><polygon points="365.55 363.12 365.55 359.02 361.44 359.02 361.44 363.12 357.34 363.12 357.34 367.23 361.44 367.23 361.44 371.34 365.55 371.34 365.55 367.23 369.66 367.23 369.66 363.12 365.55 363.12"/><polygon points="455.17 452.74 455.17 448.63 451.06 448.63 451.06 452.74 446.95 452.74 446.95 456.85 451.06 456.85 451.06 460.95 455.17 460.95 455.17 456.85 459.27 456.85 459.27 452.74 455.17 452.74"/><polygon class="cls-1" points="455.17 363.12 455.17 359.02 451.06 359.02 451.06 363.12 446.95 363.12 446.95 367.23 451.06 367.23 451.06 371.34 455.17 371.34 455.17 367.23 459.27 367.23 459.27 363.12 455.17 363.12"/><polygon class="cls-1" points="365.55 452.74 365.55 448.63 361.44 448.63 361.44 452.74 357.34 452.74 357.34 456.85 361.44 456.85 361.44 460.95 365.55 460.95 365.55 456.85 369.66 456.85 369.66 452.74 365.55 452.74"/><polygon points="365.55 542.35 365.55 538.24 361.44 538.24 361.44 542.35 357.34 542.35 357.34 546.46 361.44 546.46 361.44 550.57 365.55 550.57 365.55 546.46 369.66 546.46 369.66 542.35 365.55 542.35"/><polygon points="455.17 631.97 455.17 627.86 451.06 627.86 451.06 631.97 446.95 631.97 446.95 636.07 451.06 636.07 451.06 640.18 455.17 640.18 455.17 636.07 459.27 636.07 459.27 631.97 455.17 631.97"/><polygon class="cls-1" points="455.17 542.35 455.17 538.24 451.06 538.24 451.06 542.35 446.95 542.35 446.95 546.46 451.06 546.46 451.06 550.57 455.17 550.57 455.17 546.46 459.27 546.46 459.27 542.35 455.17 542.35"/><polygon class="cls-1" points="365.55 631.97 365.55 627.86 361.44 627.86 361.44 631.97 357.34 631.97 357.34 636.07 361.44 636.07 361.44 640.18 365.55 640.18 365.55 636.07 369.66 636.07 369.66 631.97 365.55 631.97"/><polygon points="544.78 363.12 544.78 359.02 540.67 359.02 540.67 363.12 536.56 363.12 536.56 367.23 540.67 367.23 540.67 371.34 544.78 371.34 544.78 367.23 548.89 367.23 548.89 363.12 544.78 363.12"/><polygon points="634.39 452.74 634.39 448.63 630.28 448.63 630.28 452.74 626.18 452.74 626.18 456.85 630.28 456.85 630.28 460.95 634.39 460.95 634.39 456.85 638.5 456.85 638.5 452.74 634.39 452.74"/><polygon class="cls-1" points="634.39 363.12 634.39 359.02 630.28 359.02 630.28 363.12 626.18 363.12 626.18 367.23 630.28 367.23 630.28 371.34 634.39 371.34 634.39 367.23 638.5 367.23 638.5 363.12 634.39 363.12"/><polygon class="cls-1" points="544.78 452.74 544.78 448.63 540.67 448.63 540.67 452.74 536.56 452.74 536.56 456.85 540.67 456.85 540.67 460.95 544.78 460.95 544.78 456.85 548.89 456.85 548.89 452.74 544.78 452.74"/><polygon points="544.78 542.35 544.78 538.24 540.67 538.24 540.67 542.35 536.56 542.35 536.56 546.46 540.67 546.46 540.67 550.57 544.78 550.57 544.78 546.46 548.89 546.46 548.89 542.35 544.78 542.35"/><polygon points="634.39 631.97 634.39 627.86 630.28 627.86 630.28 631.97 626.18 631.97 626.18 636.07 630.28 636.07 630.28 640.18 634.39 640.18 634.39 636.07 638.5 636.07 638.5 631.97 634.39 631.97"/><polygon class="cls-1" points="634.39 542.35 634.39 538.24 630.28 538.24 630.28 542.35 626.18 542.35 626.18 546.46 630.28 546.46 630.28 550.57 634.39 550.57 634.39 546.46 638.5 546.46 638.5 542.35 634.39 542.35"/><polygon class="cls-1" points="544.78 631.97 544.78 627.86 540.67 627.86 540.67 631.97 536.56 631.97 536.56 636.07 540.67 636.07 540.67 640.18 544.78 640.18 544.78 636.07 548.89 636.07 548.89 631.97 544.78 631.97"/><polygon points="8.21 721.11 8.21 717 4.11 717 4.11 721.11 0 721.11 0 725.22 4.11 725.22 4.11 729.32 8.21 729.32 8.21 725.22 12.32 725.22 12.32 721.11 8.21 721.11"/><polygon points="97.83 810.72 97.83 806.61 93.72 806.61 93.72 810.72 89.61 810.72 89.61 814.83 93.72 814.83 93.72 818.94 97.83 818.94 97.83 814.83 101.94 814.83 101.94 810.72 97.83 810.72"/><polygon class="cls-1" points="97.83 721.11 97.83 717 93.72 717 93.72 721.11 89.61 721.11 89.61 725.22 93.72 725.22 93.72 729.32 97.83 729.32 97.83 725.22 101.94 725.22 101.94 721.11 97.83 721.11"/><polygon class="cls-1" points="8.21 810.72 8.21 806.61 4.11 806.61 4.11 810.72 0 810.72 0 814.83 4.11 814.83 4.11 818.94 8.21 818.94 8.21 814.83 12.32 814.83 12.32 810.72 8.21 810.72"/><polygon points="8.21 900.34 8.21 896.23 4.11 896.23 4.11 900.34 0 900.34 0 904.44 4.11 904.44 4.11 908.55 8.21 908.55 8.21 904.44 12.32 904.44 12.32 900.34 8.21 900.34"/><polygon points="97.83 989.95 97.83 985.84 93.72 985.84 93.72 989.95 89.61 989.95 89.61 994.06 93.72 994.06 93.72 998.16 97.83 998.16 97.83 994.06 101.94 994.06 101.94 989.95 97.83 989.95"/><polygon class="cls-1" points="97.83 900.34 97.83 896.23 93.72 896.23 93.72 900.34 89.61 900.34 89.61 904.44 93.72 904.44 93.72 908.55 97.83 908.55 97.83 904.44 101.94 904.44 101.94 900.34 97.83 900.34"/><polygon class="cls-1" points="8.21 989.95 8.21 985.84 4.11 985.84 4.11 989.95 0 989.95 0 994.06 4.11 994.06 4.11 998.16 8.21 998.16 8.21 994.06 12.32 994.06 12.32 989.95 8.21 989.95"/><polygon points="187.44 721.11 187.44 717 183.34 717 183.34 721.11 179.23 721.11 179.23 725.22 183.34 725.22 183.34 729.32 187.44 729.32 187.44 725.22 191.55 725.22 191.55 721.11 187.44 721.11"/><polygon points="277.06 810.72 277.06 806.61 272.95 806.61 272.95 810.72 268.84 810.72 268.84 814.83 272.95 814.83 272.95 818.94 277.06 818.94 277.06 814.83 281.16 814.83 281.16 810.72 277.06 810.72"/><polygon class="cls-1" points="277.06 721.11 277.06 717 272.95 717 272.95 721.11 268.84 721.11 268.84 725.22 272.95 725.22 272.95 729.32 277.06 729.32 277.06 725.22 281.16 725.22 281.16 721.11 277.06 721.11"/><polygon class="cls-1" points="187.44 810.72 187.44 806.61 183.34 806.61 183.34 810.72 179.23 810.72 179.23 814.83 183.34 814.83 183.34 818.94 187.44 818.94 187.44 814.83 191.55 814.83 191.55 810.72 187.44 810.72"/><polygon points="187.44 900.34 187.44 896.23 183.34 896.23 183.34 900.34 179.23 900.34 179.23 904.44 183.34 904.44 183.34 908.55 187.44 908.55 187.44 904.44 191.55 904.44 191.55 900.34 187.44 900.34"/><polygon points="277.06 989.95 277.06 985.84 272.95 985.84 272.95 989.95 268.84 989.95 268.84 994.06 272.95 994.06 272.95 998.16 277.06 998.16 277.06 994.06 281.16 994.06 281.16 989.95 277.06 989.95"/><polygon class="cls-1" points="277.06 900.34 277.06 896.23 272.95 896.23 272.95 900.34 268.84 900.34 268.84 904.44 272.95 904.44 272.95 908.55 277.06 908.55 277.06 904.44 281.16 904.44 281.16 900.34 277.06 900.34"/><polygon class="cls-1" points="187.44 989.95 187.44 985.84 183.34 985.84 183.34 989.95 179.23 989.95 179.23 994.06 183.34 994.06 183.34 998.16 187.44 998.16 187.44 994.06 191.55 994.06 191.55 989.95 187.44 989.95"/><polygon points="8.21 1079.56 8.21 1075.46 4.11 1075.46 4.11 1079.56 0 1079.56 0 1083.67 4.11 1083.67 4.11 1087.78 8.21 1087.78 8.21 1083.67 12.32 1083.67 12.32 1079.56 8.21 1079.56"/><polygon points="97.83 1169.18 97.83 1165.07 93.72 1165.07 93.72 1169.18 89.61 1169.18 89.61 1173.29 93.72 1173.29 93.72 1177.39 97.83 1177.39 97.83 1173.29 101.94 1173.29 101.94 1169.18 97.83 1169.18"/><polygon class="cls-1" points="97.83 1079.56 97.83 1075.46 93.72 1075.46 93.72 1079.56 89.61 1079.56 89.61 1083.67 93.72 1083.67 93.72 1087.78 97.83 1087.78 97.83 1083.67 101.94 1083.67 101.94 1079.56 97.83 1079.56"/><polygon class="cls-1" points="8.21 1169.18 8.21 1165.07 4.11 1165.07 4.11 1169.18 0 1169.18 0 1173.29 4.11 1173.29 4.11 1177.39 8.21 1177.39 8.21 1173.29 12.32 1173.29 12.32 1169.18 8.21 1169.18"/><polygon points="8.21 1258.79 8.21 1254.68 4.11 1254.68 4.11 1258.79 0 1258.79 0 1262.9 4.11 1262.9 4.11 1267.01 8.21 1267.01 8.21 1262.9 12.32 1262.9 12.32 1258.79 8.21 1258.79"/><polygon points="97.83 1348.41 97.83 1344.3 93.72 1344.3 93.72 1348.41 89.61 1348.41 89.61 1352.51 93.72 1352.51 93.72 1356.62 97.83 1356.62 97.83 1352.51 101.94 1352.51 101.94 1348.41 97.83 1348.41"/><polygon class="cls-1" points="97.83 1258.79 97.83 1254.68 93.72 1254.68 93.72 1258.79 89.61 1258.79 89.61 1262.9 93.72 1262.9 93.72 1267.01 97.83 1267.01 97.83 1262.9 101.94 1262.9 101.94 1258.79 97.83 1258.79"/><polygon class="cls-1" points="8.21 1348.41 8.21 1344.3 4.11 1344.3 4.11 1348.41 0 1348.41 0 1352.51 4.11 1352.51 4.11 1356.62 8.21 1356.62 8.21 1352.51 12.32 1352.51 12.32 1348.41 8.21 1348.41"/><polygon points="187.44 1079.56 187.44 1075.46 183.34 1075.46 183.34 1079.56 179.23 1079.56 179.23 1083.67 183.34 1083.67 183.34 1087.78 187.44 1087.78 187.44 1083.67 191.55 1083.67 191.55 1079.56 187.44 1079.56"/><polygon points="277.06 1169.18 277.06 1165.07 272.95 1165.07 272.95 1169.18 268.84 1169.18 268.84 1173.29 272.95 1173.29 272.95 1177.39 277.06 1177.39 277.06 1173.29 281.16 1173.29 281.16 1169.18 277.06 1169.18"/><polygon class="cls-1" points="277.06 1079.56 277.06 1075.46 272.95 1075.46 272.95 1079.56 268.84 1079.56 268.84 1083.67 272.95 1083.67 272.95 1087.78 277.06 1087.78 277.06 1083.67 281.16 1083.67 281.16 1079.56 277.06 1079.56"/><polygon class="cls-1" points="187.44 1169.18 187.44 1165.07 183.34 1165.07 183.34 1169.18 179.23 1169.18 179.23 1173.29 183.34 1173.29 183.34 1177.39 187.44 1177.39 187.44 1173.29 191.55 1173.29 191.55 1169.18 187.44 1169.18"/><polygon points="187.44 1258.79 187.44 1254.68 183.34 1254.68 183.34 1258.79 179.23 1258.79 179.23 1262.9 183.34 1262.9 183.34 1267.01 187.44 1267.01 187.44 1262.9 191.55 1262.9 191.55 1258.79 187.44 1258.79"/><polygon points="277.06 1348.41 277.06 1344.3 272.95 1344.3 272.95 1348.41 268.84 1348.41 268.84 1352.51 272.95 1352.51 272.95 1356.62 277.06 1356.62 277.06 1352.51 281.16 1352.51 281.16 1348.41 277.06 1348.41"/><polygon class="cls-1" points="277.06 1258.79 277.06 1254.68 272.95 1254.68 272.95 1258.79 268.84 1258.79 268.84 1262.9 272.95 1262.9 272.95 1267.01 277.06 1267.01 277.06 1262.9 281.16 1262.9 281.16 1258.79 277.06 1258.79"/><polygon class="cls-1" points="187.44 1348.41 187.44 1344.3 183.34 1344.3 183.34 1348.41 179.23 1348.41 179.23 1352.51 183.34 1352.51 183.34 1356.62 187.44 1356.62 187.44 1352.51 191.55 1352.51 191.55 1348.41 187.44 1348.41"/><polygon points="365.55 721.67 365.55 717.56 361.44 717.56 361.44 721.67 357.34 721.67 357.34 725.77 361.44 725.77 361.44 729.88 365.55 729.88 365.55 725.77 369.66 725.77 369.66 721.67 365.55 721.67"/><polygon points="455.17 811.28 455.17 807.17 451.06 807.17 451.06 811.28 446.95 811.28 446.95 815.39 451.06 815.39 451.06 819.5 455.17 819.5 455.17 815.39 459.27 815.39 459.27 811.28 455.17 811.28"/><polygon class="cls-1" points="455.17 721.67 455.17 717.56 451.06 717.56 451.06 721.67 446.95 721.67 446.95 725.77 451.06 725.77 451.06 729.88 455.17 729.88 455.17 725.77 459.27 725.77 459.27 721.67 455.17 721.67"/><polygon class="cls-1" points="365.55 811.28 365.55 807.17 361.44 807.17 361.44 811.28 357.34 811.28 357.34 815.39 361.44 815.39 361.44 819.5 365.55 819.5 365.55 815.39 369.66 815.39 369.66 811.28 365.55 811.28"/><polygon points="365.55 900.89 365.55 896.79 361.44 896.79 361.44 900.89 357.34 900.89 357.34 905 361.44 905 361.44 909.11 365.55 909.11 365.55 905 369.66 905 369.66 900.89 365.55 900.89"/><polygon points="455.17 990.51 455.17 986.4 451.06 986.4 451.06 990.51 446.95 990.51 446.95 994.62 451.06 994.62 451.06 998.72 455.17 998.72 455.17 994.62 459.27 994.62 459.27 990.51 455.17 990.51"/><polygon class="cls-1" points="455.17 900.89 455.17 896.79 451.06 896.79 451.06 900.89 446.95 900.89 446.95 905 451.06 905 451.06 909.11 455.17 909.11 455.17 905 459.27 905 459.27 900.89 455.17 900.89"/><polygon class="cls-1" points="365.55 990.51 365.55 986.4 361.44 986.4 361.44 990.51 357.34 990.51 357.34 994.62 361.44 994.62 361.44 998.72 365.55 998.72 365.55 994.62 369.66 994.62 369.66 990.51 365.55 990.51"/><polygon points="544.78 721.67 544.78 717.56 540.67 717.56 540.67 721.67 536.56 721.67 536.56 725.77 540.67 725.77 540.67 729.88 544.78 729.88 544.78 725.77 548.89 725.77 548.89 721.67 544.78 721.67"/><polygon points="634.39 811.28 634.39 807.17 630.28 807.17 630.28 811.28 626.18 811.28 626.18 815.39 630.28 815.39 630.28 819.5 634.39 819.5 634.39 815.39 638.5 815.39 638.5 811.28 634.39 811.28"/><polygon class="cls-1" points="634.39 721.67 634.39 717.56 630.28 717.56 630.28 721.67 626.18 721.67 626.18 725.77 630.28 725.77 630.28 729.88 634.39 729.88 634.39 725.77 638.5 725.77 638.5 721.67 634.39 721.67"/><polygon class="cls-1" points="544.78 811.28 544.78 807.17 540.67 807.17 540.67 811.28 536.56 811.28 536.56 815.39 540.67 815.39 540.67 819.5 544.78 819.5 544.78 815.39 548.89 815.39 548.89 811.28 544.78 811.28"/><polygon points="544.78 900.89 544.78 896.79 540.67 896.79 540.67 900.89 536.56 900.89 536.56 905 540.67 905 540.67 909.11 544.78 909.11 544.78 905 548.89 905 548.89 900.89 544.78 900.89"/><polygon points="634.39 990.51 634.39 986.4 630.28 986.4 630.28 990.51 626.18 990.51 626.18 994.62 630.28 994.62 630.28 998.72 634.39 998.72 634.39 994.62 638.5 994.62 638.5 990.51 634.39 990.51"/><polygon class="cls-1" points="634.39 900.89 634.39 896.79 630.28 896.79 630.28 900.89 626.18 900.89 626.18 905 630.28 905 630.28 909.11 634.39 909.11 634.39 905 638.5 905 638.5 900.89 634.39 900.89"/><polygon class="cls-1" points="544.78 990.51 544.78 986.4 540.67 986.4 540.67 990.51 536.56 990.51 536.56 994.62 540.67 994.62 540.67 998.72 544.78 998.72 544.78 994.62 548.89 994.62 548.89 990.51 544.78 990.51"/><polygon points="365.55 1080.12 365.55 1076.02 361.44 1076.02 361.44 1080.12 357.34 1080.12 357.34 1084.23 361.44 1084.23 361.44 1088.34 365.55 1088.34 365.55 1084.23 369.66 1084.23 369.66 1080.12 365.55 1080.12"/><polygon points="455.17 1169.74 455.17 1165.63 451.06 1165.63 451.06 1169.74 446.95 1169.74 446.95 1173.85 451.06 1173.85 451.06 1177.95 455.17 1177.95 455.17 1173.85 459.27 1173.85 459.27 1169.74 455.17 1169.74"/><polygon class="cls-1" points="455.17 1080.12 455.17 1076.02 451.06 1076.02 451.06 1080.12 446.95 1080.12 446.95 1084.23 451.06 1084.23 451.06 1088.34 455.17 1088.34 455.17 1084.23 459.27 1084.23 459.27 1080.12 455.17 1080.12"/><polygon class="cls-1" points="365.55 1169.74 365.55 1165.63 361.44 1165.63 361.44 1169.74 357.34 1169.74 357.34 1173.85 361.44 1173.85 361.44 1177.95 365.55 1177.95 365.55 1173.85 369.66 1173.85 369.66 1169.74 365.55 1169.74"/><polygon points="365.55 1259.35 365.55 1255.24 361.44 1255.24 361.44 1259.35 357.34 1259.35 357.34 1263.46 361.44 1263.46 361.44 1267.57 365.55 1267.57 365.55 1263.46 369.66 1263.46 369.66 1259.35 365.55 1259.35"/><polygon points="455.17 1348.97 455.17 1344.86 451.06 1344.86 451.06 1348.97 446.95 1348.97 446.95 1353.07 451.06 1353.07 451.06 1357.18 455.17 1357.18 455.17 1353.07 459.27 1353.07 459.27 1348.97 455.17 1348.97"/><polygon class="cls-1" points="455.17 1259.35 455.17 1255.24 451.06 1255.24 451.06 1259.35 446.95 1259.35 446.95 1263.46 451.06 1263.46 451.06 1267.57 455.17 1267.57 455.17 1263.46 459.27 1263.46 459.27 1259.35 455.17 1259.35"/><polygon class="cls-1" points="365.55 1348.97 365.55 1344.86 361.44 1344.86 361.44 1348.97 357.34 1348.97 357.34 1353.07 361.44 1353.07 361.44 1357.18 365.55 1357.18 365.55 1353.07 369.66 1353.07 369.66 1348.97 365.55 1348.97"/><polygon points="544.78 1080.12 544.78 1076.02 540.67 1076.02 540.67 1080.12 536.56 1080.12 536.56 1084.23 540.67 1084.23 540.67 1088.34 544.78 1088.34 544.78 1084.23 548.89 1084.23 548.89 1080.12 544.78 1080.12"/><polygon points="634.39 1169.74 634.39 1165.63 630.28 1165.63 630.28 1169.74 626.18 1169.74 626.18 1173.85 630.28 1173.85 630.28 1177.95 634.39 1177.95 634.39 1173.85 638.5 1173.85 638.5 1169.74 634.39 1169.74"/><polygon class="cls-1" points="634.39 1080.12 634.39 1076.02 630.28 1076.02 630.28 1080.12 626.18 1080.12 626.18 1084.23 630.28 1084.23 630.28 1088.34 634.39 1088.34 634.39 1084.23 638.5 1084.23 638.5 1080.12 634.39 1080.12"/><polygon class="cls-1" points="544.78 1169.74 544.78 1165.63 540.67 1165.63 540.67 1169.74 536.56 1169.74 536.56 1173.85 540.67 1173.85 540.67 1177.95 544.78 1177.95 544.78 1173.85 548.89 1173.85 548.89 1169.74 544.78 1169.74"/><polygon points="544.78 1259.35 544.78 1255.24 540.67 1255.24 540.67 1259.35 536.56 1259.35 536.56 1263.46 540.67 1263.46 540.67 1267.57 544.78 1267.57 544.78 1263.46 548.89 1263.46 548.89 1259.35 544.78 1259.35"/><polygon points="634.39 1348.97 634.39 1344.86 630.28 1344.86 630.28 1348.97 626.18 1348.97 626.18 1353.07 630.28 1353.07 630.28 1357.18 634.39 1357.18 634.39 1353.07 638.5 1353.07 638.5 1348.97 634.39 1348.97"/><polygon class="cls-1" points="634.39 1259.35 634.39 1255.24 630.28 1255.24 630.28 1259.35 626.18 1259.35 626.18 1263.46 630.28 1263.46 630.28 1267.57 634.39 1267.57 634.39 1263.46 638.5 1263.46 638.5 1259.35 634.39 1259.35"/><polygon class="cls-1" points="544.78 1348.97 544.78 1344.86 540.67 1344.86 540.67 1348.97 536.56 1348.97 536.56 1353.07 540.67 1353.07 540.67 1357.18 544.78 1357.18 544.78 1353.07 548.89 1353.07 548.89 1348.97 544.78 1348.97"/></svg>