<svg xmlns="http://www.w3.org/2000/svg" viewBox="0 0 3226.6 401.03"><defs><style>.cls-1{fill:#2effe0;}</style></defs><g id="Calque_4" data-name="Calque 4"><polygon class="cls-1" points="949.74 49.03 0.12 48.71 0.11 60.88 934.76 61.2 949.74 49.03"/><polygon class="cls-1" points="1613.58 60.88 2547.76 61.2 2562.74 49.03 1613.12 48.71 1613.12 49.25 1314.96 49.15 1299.99 61.32 1613.58 61.43 1613.58 60.88"/><polygon class="cls-1" points="218.75 97.49 0.1 97.42 0.1 109.59 203.78 109.66 218.75 97.49"/><polygon class="cls-1" points="1151.83 146.51 0.09 146.12 0.08 158.3 1136.85 158.68 1151.83 146.51"/><polygon class="cls-1" points="59.02 242.21 0.05 242.19 0.05 254.36 44.05 254.38 59.02 242.21"/><polygon class="cls-1" points="591.89 254.56 1613.52 254.91 1613.52 254.36 1657.05 254.38 1672.02 242.21 1613.05 242.19 1613.05 242.73 606.86 242.39 591.89 254.56"/><polygon class="cls-1" points="762.28 339.86 0.02 339.6 0.02 351.78 772.18 352.04 762.28 339.86"/><polygon class="cls-1" points="560.61 400.67 839.1 400.77 854.07 388.6 575.58 388.5 560.61 400.67"/><polygon class="cls-1" points="934.29 0.31 669.5 0.23 654.53 12.4 919.32 12.49 934.29 0.31"/><polygon class="cls-1" points="1613.6 12.18 1826.98 12.25 1841.95 0.08 1613.13 0 1613.13 0.54 1331.48 0.45 1316.51 12.62 1613.6 12.72 1613.6 12.18"/><polygon class="cls-1" points="228.95 0.08 0.14 0 0.13 12.18 213.98 12.25 228.95 0.08"/><polygon class="cls-1" points="1126.71 400.86 1489.72 400.99 1501.89 388.81 1141.68 388.69 1126.71 400.86"/><polygon class="cls-1" points="114.77 400.52 441.91 400.63 456.88 388.46 126.94 388.35 114.77 400.52"/><polygon class="cls-1" points="558.8 207.2 573.77 195.02 108.43 194.87 96.25 207.04 558.8 207.2"/><polygon class="cls-1" points="932.15 195.14 917.18 207.32 1537.18 207.52 1549.35 195.35 932.15 195.14"/><polygon class="cls-1" points="1613.04 291.44 0.04 290.89 0.03 303.07 1613.5 303.61 1613.5 303.07 3226.5 303.61 3226.5 291.44 1613.04 290.89 1613.04 291.44"/><polygon class="cls-1" points="2912.99 61.32 3226.58 61.43 3226.59 49.25 2927.96 49.15 2912.99 61.32"/><polygon class="cls-1" points="1613.1 97.96 570.28 97.61 555.31 109.78 1613.57 110.14 1613.57 109.59 1816.78 109.66 1831.75 97.49 1613.1 97.42 1613.1 97.96"/><polygon class="cls-1" points="2168.31 109.78 3226.57 110.14 3226.57 97.96 2183.28 97.61 2168.31 109.78"/><polygon class="cls-1" points="1613.09 146.66 1473.68 146.62 1458.71 158.79 1613.55 158.84 1613.55 158.3 2749.85 158.68 2764.82 146.51 1613.09 146.12 1613.09 146.66"/><polygon class="cls-1" points="3071.71 158.79 3226.55 158.84 3226.55 146.66 3086.68 146.62 3071.71 158.79"/><polygon class="cls-1" points="2204.89 254.56 3226.52 254.91 3226.52 242.73 2219.86 242.39 2204.89 254.56"/><polygon class="cls-1" points="2726.55 352.15 3226.48 352.32 3226.49 340.14 2741.52 339.98 2726.55 352.15"/><polygon class="cls-1" points="2385.18 352.04 2375.28 339.86 1613.02 339.6 1613.02 340.14 1128.52 339.98 1113.55 352.15 1613.48 352.32 1613.48 351.78 2385.18 352.04"/><polygon class="cls-1" points="2173.61 400.67 2452.1 400.77 2467.07 388.6 2188.58 388.5 2173.61 400.67"/><polygon class="cls-1" points="2547.29 0.31 2282.5 0.23 2267.53 12.4 2532.32 12.49 2547.29 0.31"/><polygon class="cls-1" points="2944.48 0.45 2929.51 12.62 3226.6 12.72 3226.6 0.54 2944.48 0.45"/><polygon class="cls-1" points="2739.71 400.86 3102.72 400.99 3114.89 388.81 2754.68 388.69 2739.71 400.86"/><polygon class="cls-1" points="1727.77 400.52 2054.91 400.63 2069.88 388.46 1739.94 388.35 1727.77 400.52"/><polygon class="cls-1" points="2171.8 207.2 2186.77 195.02 1721.43 194.87 1709.26 207.04 2171.8 207.2"/><polygon class="cls-1" points="2530.18 207.32 3150.18 207.52 3162.35 195.35 2545.15 195.14 2530.18 207.32"/></g></svg>