<svg xmlns="http://www.w3.org/2000/svg" viewBox="0 0 747 740.23"><defs><style>.cls-1{fill:#2effe0;}</style></defs><g id="Formes"><path class="cls-1" d="M604,374a230.28,230.28,0,0,1-16.42,85.67l132.69,52.84A372.45,372.45,0,0,0,747,373.5C747,167.22,579.78,0,373.5,0H373l.19,143C500.68,143.11,604,246.49,604,374Z"/><path class="cls-1" d="M374,335a38,38,0,0,1,35.05,52.71l141.52,56.36A191,191,0,0,0,564,373.5C564,268,478.66,182.41,373.24,182l.21,153Z"/><path class="cls-1" d="M365.08,409.94a38,38,0,0,1-13.54-67.59L261.87,217.17a191.55,191.55,0,0,0,47,337Z"/><path class="cls-1" d="M403.35,397.14A38,38,0,0,1,382.86,410L411.11,561.1a191.44,191.44,0,0,0,112-69.29Z"/><path class="cls-1" d="M294.24,591.22C205.44,559,142,473.92,142,374a230.72,230.72,0,0,1,97.51-188.55l-83-115.94C61.74,137.25,0,248.17,0,373.5c0,160.26,100.93,296.93,242.69,350Z"/><path class="cls-1" d="M555.43,515.7a231,231,0,0,1-136.88,84.79l26.12,139.74A373.44,373.44,0,0,0,667.3,604.14Z"/></g></svg>